<svg width="24" height="24" viewBox="0 0 100 100" fill="none" xmlns="http://www.w3.org/2000/svg">
<g clip-path="url(#clip0_1284_64769)">

<g mask="url(#mask0_1284_64769)">
<path d="M88.8438 57.6781C82.6531 54.8643 74.5664 53.2631 65.9664 53.1346C69.0469 47.7887 70.7031 41.6486 70.7031 35.3516C70.7031 25.9674 67.0455 17.1109 60.4041 10.4141C53.7441 3.69844 44.9164 0 35.5469 0C16.1062 0 0 15.9721 0 35.3516C0 52.7125 12.8199 67.3996 29.5045 70.2144C29.4964 70.3772 29.4923 70.5402 29.4922 70.7031V82.4219C29.4922 87.5498 33.492 92.177 40.7545 95.4508C47.2625 98.3844 55.8176 100 64.8438 100C83.533 100 100 92.9869 100 82.4219V70.7031C100 65.5738 96.0379 60.9482 88.8438 57.6781ZM5.85938 35.3516C5.85938 19.365 19.4545 5.85938 35.5469 5.85938C42.56 5.85938 49.0045 8.35391 54.0535 12.5064L12.5518 54.0082C8.36621 48.9012 5.85938 42.3875 5.85938 35.3516ZM31.5395 64.5951C25.9393 63.8666 20.8426 61.5619 16.6926 58.1537L58.1891 16.6572C62.3453 21.7492 64.8438 28.2621 64.8438 35.3516C64.8438 41.9141 62.6977 48.2654 58.7787 53.373C49.5543 54.133 36.7297 57.2375 31.5395 64.5951ZM47.0129 61.5672L75.1063 81.6338C71.8635 82.1518 68.4043 82.4219 64.8438 82.4219C47.9641 82.4219 35.3516 76.235 35.3516 70.7031C35.3516 67.4082 39.827 63.8811 47.0129 61.5672ZM94.1406 82.4219C94.1406 87.7916 82.2258 94.1406 64.8438 94.1406C47.9641 94.1406 35.3516 87.9537 35.3516 82.4219V80.6176C40.4727 84.4313 50.5639 88.2812 64.8438 88.2812C79.1102 88.2812 89.0807 84.4355 94.1406 80.6586V82.4219ZM82.6752 79.8395L54.5934 59.7811C57.7555 59.2732 61.1998 58.9844 64.8438 58.9844C82.232 58.9844 94.1406 65.3371 94.1406 70.7031C94.1406 75.085 86.9902 78.4297 82.6752 79.8395Z" fill="#33b933"/>
</g>
</g>
<defs>
<clipPath id="clip0_1284_64769">
<rect width="100" height="100" fill="white"/>
</clipPath>
</defs>
</svg>
