<?xml version="1.0" standalone="no"?>
<!DOCTYPE svg PUBLIC "-//W3C//DTD SVG 20010904//EN"
 "http://www.w3.org/TR/2001/REC-SVG-20010904/DTD/svg10.dtd">
<svg version="1.0" xmlns="http://www.w3.org/2000/svg"
 width="20px" height="20px" viewBox="0 0 200.000000 184.000000"
 preserveAspectRatio="xMidYMid meet">

<g transform="translate(0.000000,184.000000) scale(0.100000,-0.100000)"
fill="#000000" stroke="none">
<path d="M297 1824 c-71 -22 -131 -84 -152 -158 -26 -90 -8 -164 57 -233 l30
-31 -23 -32 c-46 -61 -25 -160 39 -189 29 -14 98 -14 123 0 18 9 22 4 44 -46
14 -30 25 -60 25 -65 0 -6 -62 -10 -155 -10 -165 0 -204 -9 -247 -56 -28 -32
-41 -95 -29 -139 19 -71 75 -115 146 -115 28 0 35 -4 39 -22 41 -215 65 -279
145 -387 126 -169 297 -280 496 -321 92 -20 256 -15 347 9 74 19 79 19 115 3
32 -14 72 -17 258 -17 216 0 221 0 276 26 120 57 164 138 163 304 -1 134 -9
151 -73 160 -27 4 -79 4 -115 0 -74 -8 -76 -6 -52 61 7 22 19 72 26 112 l12
72 35 0 c88 0 160 80 150 167 -5 49 -27 85 -71 117 -27 20 -42 21 -491 26
l-465 5 -111 145 c-61 80 -113 151 -116 157 -3 7 11 28 31 46 32 31 36 40 36
85 0 39 -6 57 -25 81 -29 34 -77 53 -125 49 -30 -3 -33 0 -45 40 -37 122 -175
194 -298 156z m152 -64 c68 -34 111 -107 99 -165 -2 -10 -56 -49 -128 -90
-124 -73 -125 -73 -153 -57 -89 52 -103 209 -26 278 63 56 140 69 208 34z
m271 -212 c24 -26 26 -55 5 -85 -20 -29 -389 -243 -419 -243 -31 0 -63 28 -72
62 -9 40 32 74 231 189 183 106 218 116 255 77z m47 -333 c54 -71 102 -136
107 -142 6 -10 -33 -13 -181 -13 l-188 0 -29 74 c-17 41 -30 78 -29 83 0 9
204 132 215 129 3 0 51 -59 105 -131z m1126 -240 c13 -14 27 -38 30 -53 7 -35
-21 -93 -53 -109 -19 -10 -218 -13 -878 -13 -916 0 -895 -1 -922 49 -18 35
-12 87 16 120 l26 31 878 0 877 0 26 -25z m-166 -278 c-7 -73 -27 -137 -43
-137 -7 0 -14 3 -16 8 -6 14 -101 92 -113 92 -16 0 -115 -86 -148 -130 l-28
-36 -65 9 c-91 13 -171 2 -186 -26 -7 -14 -12 -65 -12 -132 1 -116 14 -172 54
-222 11 -14 20 -29 20 -33 0 -17 -136 -33 -239 -28 -209 11 -391 101 -531 265
-49 58 -127 184 -135 219 -29 132 -35 162 -35 182 l0 22 741 0 742 0 -6 -53z
m-104 -159 c98 -97 128 -196 87 -285 -18 -42 -105 -143 -121 -143 -5 0 -10 55
-11 122 -3 115 -4 123 -23 123 -19 0 -20 -8 -23 -123 -2 -76 -7 -122 -13 -122
-20 0 -91 85 -116 138 -29 62 -28 122 1 184 22 46 128 158 149 158 9 0 40 -24
70 -52z m-282 -108 c-2 -8 -6 -45 -9 -82 -3 -56 0 -75 21 -122 14 -30 46 -77
71 -104 25 -27 46 -53 46 -57 0 -10 -102 2 -155 18 -52 15 -117 81 -133 133
-13 44 -17 216 -5 228 4 4 43 5 88 4 65 -2 79 -6 76 -18z m597 -70 c5 -150
-29 -223 -122 -266 -51 -23 -176 -44 -176 -29 0 4 20 30 46 57 61 66 94 138
94 210 0 31 -4 68 -9 81 -6 14 -7 28 -3 31 3 4 42 5 87 4 l80 -3 3 -85z"/>
</g>
</svg>
