<?xml version="1.0" standalone="no"?>
<!DOCTYPE svg PUBLIC "-//W3C//DTD SVG 20010904//EN"
 "http://www.w3.org/TR/2001/REC-SVG-20010904/DTD/svg10.dtd">
<svg version="1.0" xmlns="http://www.w3.org/2000/svg"
 width="20px" height="20px" viewBox="0 0 207.000000 190.000000"
 preserveAspectRatio="xMidYMid meet">

<g transform="translate(0.000000,190.000000) scale(0.100000,-0.100000)"
fill="#000000" stroke="none">
<path d="M339 1887 c-79 -22 -155 -92 -180 -164 -30 -86 -4 -229 51 -278 17
-15 17 -17 -2 -53 -15 -29 -18 -50 -14 -92 4 -47 10 -60 40 -87 42 -39 98 -55
147 -44 33 8 38 6 48 -16 6 -13 11 -26 11 -28 0 -3 -62 -5 -138 -5 -128 0
-142 -2 -189 -26 -42 -20 -57 -35 -77 -77 -14 -28 -26 -65 -26 -81 1 -40 23
-102 47 -128 25 -28 87 -58 120 -58 27 0 29 -3 40 -67 22 -125 30 -151 61
-213 60 -115 177 -248 283 -321 186 -126 437 -175 649 -125 90 21 82 21 150 2
74 -21 391 -22 468 -2 107 29 168 81 214 182 18 41 22 67 22 154 0 58 -5 124
-12 147 -15 52 -32 58 -150 58 -78 0 -83 1 -77 20 3 11 10 43 16 70 5 28 12
60 14 71 4 16 14 23 45 27 164 22 202 255 55 339 -40 23 -43 23 -494 28 l-454
5 -106 138 c-91 120 -103 141 -90 150 47 35 63 133 31 196 -21 43 -93 84 -139
79 -29 -3 -32 -1 -43 35 -35 116 -196 199 -321 164z m141 -128 c23 -12 45 -32
50 -44 5 -13 14 -26 19 -30 19 -11 12 -54 -11 -68 -165 -101 -199 -117 -219
-107 -52 28 -75 124 -44 184 41 79 126 106 205 65z m260 -210 c7 -11 9 -26 7
-33 -6 -16 -380 -236 -400 -236 -21 0 -39 26 -35 51 2 16 47 48 188 130 102
59 195 108 207 108 13 1 27 -8 33 -20z m-30 -227 c0 -4 32 -47 70 -96 39 -48
70 -92 70 -97 0 -5 -63 -9 -140 -9 l-140 0 -25 57 c-14 31 -23 59 -20 62 3 3
38 24 78 48 68 40 107 53 107 35z m1202 -339 c24 -22 24 -77 -2 -103 -20 -20
-33 -20 -877 -20 l-857 0 -23 22 c-27 25 -30 64 -7 96 l15 22 866 0 c792 0
868 -1 885 -17z m-176 -270 c-14 -77 -13 -77 -55 -44 -62 50 -83 56 -122 36
-19 -10 -62 -46 -96 -81 l-62 -63 -83 6 c-50 3 -100 1 -125 -6 -50 -14 -61
-39 -70 -156 -6 -88 6 -163 37 -227 11 -23 17 -44 14 -47 -3 -3 -65 -6 -137
-6 -115 1 -143 4 -217 27 -47 15 -114 44 -149 65 -77 45 -209 172 -242 232
-13 24 -32 58 -41 75 -19 33 -53 140 -62 194 l-5 32 710 0 711 0 -6 -37z m-74
-188 c38 -39 78 -122 78 -160 0 -36 -29 -99 -64 -140 l-25 -30 -1 97 c0 105
-10 128 -55 128 -45 0 -55 -23 -55 -127 0 -96 0 -96 -20 -78 -11 10 -32 42
-46 72 -22 43 -25 62 -21 98 8 53 42 110 99 166 46 44 42 45 110 -26z m-323
-117 c-14 -77 17 -175 76 -247 22 -26 24 -31 10 -31 -41 0 -99 26 -128 57 -44
46 -55 84 -56 181 l-1 82 54 0 53 0 -8 -42z m611 -37 c0 -90 -12 -135 -49
-175 -29 -32 -94 -65 -129 -66 -22 0 -22 2 12 46 48 63 69 131 64 210 l-4 64
53 0 53 0 0 -79z"/>
</g>
</svg>
